<svg id="Layer_1" data-name="Layer 1" xmlns="http://www.w3.org/2000/svg" viewBox="0 0 511.64 112.91"><defs><style>.cls-1{fill:#fecc00;}.cls-2{fill:#d50029;}</style></defs><title>dhl</title><polygon class="cls-1" points="511.64 0 511.64 112.91 0 112.91 0 0 511.64 0 511.64 0"/><path class="cls-2" d="M165,47.18c-2.23,3-6,8.29-8.25,11.36-1.16,1.57-3.24,4.41,3.68,4.41h36.43l10.79-14.67c6.7-9.09.58-28-23.35-28H90L73.63,42.49h89.09C167.22,42.49,167.16,44.2,165,47.18ZM138.2,68.42c-6.92,0-4.84-2.84-3.68-4.4,2.28-3.08,6.08-8.29,8.31-11.31s2.26-4.7-2.24-4.7H99.85L67,92.63h80.06c26.44,0,41.16-18,45.7-24.2C192.78,68.42,145.52,68.42,138.2,68.42Zm52.08,24.21h47l17.81-24.21h-47S190.28,92.63,190.28,92.63ZM311.46,20.28l-18,24.47h-21l18-24.47h-47L212.12,63H327l31.4-42.67ZM258.21,92.63h46.94L323,68.43H276S258.21,92.63,258.21,92.63ZM0,78v5.14H65.41L69.19,78Zm76.22-9.55H0v5.14H72.43ZM0,92.63H58.4l3.76-5.11H0Zm442.71-9.52h68.93V78H446.5Zm-7,9.52h75.93V87.52H439.47Zm17.8-24.21-3.77,5.15h61.9V68.42ZM392,63l31.41-42.67H373.7S342.27,63,342.27,63Zm-53.78,5.47s-3.43,4.69-5.1,7c-5.89,8-.68,17.26,18.56,17.26h75.41l17.81-24.2H338.24Z"/></svg>