<?xml version="1.0" encoding="utf-8"?>
<!-- Generator: Adobe Illustrator 16.0.0, SVG Export Plug-In . SVG Version: 6.00 Build 0)  -->
<!DOCTYPE svg PUBLIC "-//W3C//DTD SVG 1.1//EN" "http://www.w3.org/Graphics/SVG/1.1/DTD/svg11.dtd">
<svg version="1.1" id="Layer_1" xmlns="http://www.w3.org/2000/svg" xmlns:xlink="http://www.w3.org/1999/xlink" x="0px" y="0px"
	 width="66px" height="66px" viewBox="0 0 66 66" enable-background="new 0 0 66 66" xml:space="preserve">
<g>
	<g>
		<path fill="#FFB600" d="M64.5,33.001c0.002,10.435-8.436,18.896-18.85,18.898c-10.412,0.004-18.855-8.455-18.858-18.889v-0.01
			c-0.004-10.437,8.437-18.897,18.849-18.9S64.497,22.556,64.5,32.991C64.5,32.991,64.5,32.997,64.5,33.001z"/>
	</g>
	<g>
		<path fill="#F7981D" d="M45.641,14.101c10.412-0.003,18.856,8.455,18.859,18.891c0,0,0,0.006,0,0.01
			c0.002,10.435-8.436,18.896-18.85,18.898c-10.412,0.004-18.855-8.455-18.858-18.889"/>
	</g>
	<g>
		<path fill="#FF8500" d="M45.641,14.101c10.412-0.003,18.856,8.455,18.859,18.891c0,0,0,0.006,0,0.01
			c0.002,10.435-8.436,18.896-18.85,18.898"/>
	</g>
	<g>
		<path fill="#FF5050" d="M20.234,14.105C9.882,14.172,1.5,22.611,1.5,33.001c0,10.431,8.447,18.896,18.855,18.896
			c4.882,0,9.336-1.867,12.686-4.924v-0.002h0.002c0.687-0.626,1.326-1.302,1.915-2.023h-3.862
			c-0.516-0.622-0.985-1.273-1.406-1.945h6.662c0.406-0.649,0.771-1.326,1.1-2.023H28.59c-0.303-0.649-0.564-1.312-0.787-1.984
			h10.436c0.629-1.885,0.97-3.9,0.97-5.993c0-1.39-0.151-2.743-0.434-4.047H27.248c0.144-0.671,0.323-1.335,0.538-1.984h10.44
			c-0.233-0.694-0.505-1.368-0.812-2.024h-8.826c0.318-0.68,0.68-1.344,1.082-1.984h6.657c-0.443-0.707-0.934-1.383-1.462-2.022
			h-3.713c0.574-0.677,1.207-1.315,1.891-1.908c-3.35-3.059-7.803-4.925-12.688-4.925C20.313,14.105,20.273,14.105,20.234,14.105z"
			/>
	</g>
	<g>
		<path fill="#E52836" d="M1.5,33.001c0,10.431,8.447,18.896,18.855,18.896c4.882,0,9.336-1.867,12.686-4.924v-0.002h0.002
			c0.687-0.626,1.326-1.302,1.915-2.023h-3.862c-0.516-0.622-0.985-1.273-1.406-1.945h6.662c0.406-0.649,0.771-1.326,1.1-2.023
			H28.59c-0.303-0.649-0.564-1.312-0.787-1.984h10.436c0.629-1.885,0.97-3.9,0.97-5.993c0-1.39-0.151-2.743-0.434-4.047H27.248
			c0.144-0.671,0.323-1.335,0.538-1.984h10.44c-0.233-0.694-0.505-1.368-0.812-2.024h-8.826c0.318-0.68,0.68-1.344,1.082-1.984
			h6.657c-0.443-0.707-0.934-1.383-1.462-2.022h-3.713c0.574-0.677,1.207-1.315,1.891-1.908c-3.35-3.059-7.803-4.925-12.688-4.925
			c-0.042,0-0.082,0-0.121,0"/>
	</g>
	<g>
		<path fill="#CB2026" d="M20.355,51.896c4.882,0,9.336-1.867,12.686-4.924v-0.002h0.002c0.687-0.626,1.326-1.302,1.915-2.023
			h-3.862c-0.516-0.622-0.985-1.273-1.406-1.945h6.662c0.406-0.649,0.771-1.326,1.1-2.023H28.59
			c-0.303-0.649-0.564-1.312-0.787-1.984h10.436c0.629-1.885,0.97-3.9,0.97-5.993c0-1.39-0.151-2.743-0.434-4.047H27.248
			c0.144-0.671,0.323-1.335,0.538-1.984h10.44c-0.233-0.694-0.505-1.368-0.812-2.024h-8.826c0.318-0.68,0.68-1.344,1.082-1.984
			h6.657c-0.443-0.707-0.934-1.383-1.462-2.022h-3.713c0.574-0.677,1.207-1.315,1.891-1.908c-3.35-3.059-7.803-4.925-12.688-4.925
			c-0.042,0-0.082,0-0.121,0"/>
	</g>
	<g>
		<g>
			<path fill="#FFFFFF" d="M27.135,37.812l0.251-1.71c-0.138,0-0.34,0.059-0.519,0.059c-0.697,0-0.775-0.373-0.73-0.647l0.564-3.489
				h1.062l0.257-1.893h-1.001l0.205-1.176h-2.009C25.171,29,24.03,35.571,24.03,36.371c0,1.185,0.662,1.713,1.599,1.705
				C26.361,38.068,26.934,37.865,27.135,37.812z"/>
		</g>
		<g>
			<path fill="#FFFFFF" d="M27.771,34.551c0,2.844,1.872,3.52,3.468,3.52c1.473,0,2.119-0.331,2.119-0.331l0.355-1.94
				c0,0-1.121,0.496-2.133,0.496c-2.155,0-1.777-1.611-1.777-1.611h4.08c0,0,0.264-1.304,0.264-1.836
				c0-1.325-0.66-2.939-2.863-2.939C29.264,29.908,27.771,32.088,27.771,34.551z M31.292,31.709c1.132,0,0.923,1.276,0.923,1.379
				h-2.229C29.985,32.957,30.195,31.709,31.292,31.709z"/>
		</g>
		<g>
			<path fill="#FFFFFF" d="M44.002,37.812l0.359-2.196c0,0-0.984,0.498-1.66,0.498c-1.424,0-1.995-1.092-1.995-2.261
				c0-2.376,1.225-3.684,2.589-3.684c1.023,0,1.844,0.577,1.844,0.577l0.328-2.131c0,0-1.218-0.494-2.261-0.494
				c-2.318,0-4.573,2.014-4.573,5.799c0,2.508,1.219,4.166,3.613,4.166C42.924,38.086,44.002,37.812,44.002,37.812z"/>
		</g>
		<g>
			<path fill="#FFFFFF" d="M16.093,29.939c-1.377,0-2.431,0.441-2.431,0.441l-0.292,1.734c0,0,0.872-0.354,2.188-0.354
				c0.746,0,1.293,0.084,1.293,0.693c0,0.37-0.066,0.507-0.066,0.507s-0.589-0.051-0.863-0.051c-1.734,0-3.559,0.742-3.559,2.982
				c0,1.764,1.195,2.168,1.938,2.168c1.416,0,2.025-0.92,2.059-0.924l-0.064,0.77h1.767l0.788-5.541
				C18.85,30.016,16.804,29.939,16.093,29.939z M16.524,34.449c0.037,0.34-0.214,1.926-1.422,1.926c-0.623,0-0.786-0.479-0.786-0.76
				c0-0.551,0.299-1.212,1.771-1.212C16.43,34.403,16.466,34.441,16.524,34.449z"/>
		</g>
		<g>
			<path fill="#FFFFFF" d="M20.729,38.02c0.452,0,3.036,0.117,3.036-2.557c0-2.5-2.392-2.006-2.392-3.011
				c0-0.497,0.389-0.657,1.103-0.657c0.282,0,1.372,0.091,1.372,0.091l0.254-1.777c0,0-0.705-0.157-1.852-0.157
				c-1.487,0-2.994,0.593-2.994,2.626c0,2.306,2.514,2.072,2.514,3.042c0,0.648-0.702,0.702-1.244,0.702
				c-0.936,0-1.777-0.323-1.781-0.308l-0.269,1.758C18.523,37.788,19.045,38.02,20.729,38.02z"/>
		</g>
		<g>
			<path fill="#FFFFFF" d="M60.631,28.344l-0.433,2.693c0,0-0.756-1.045-1.938-1.045c-1.84,0-3.373,2.222-3.373,4.775
				c0,1.65,0.817,3.263,2.489,3.263c1.203,0,1.868-0.84,1.868-0.84l-0.087,0.717h1.952l1.534-9.567L60.631,28.344z M59.699,33.598
				c0,1.061-0.525,2.479-1.613,2.479c-0.724,0-1.061-0.607-1.061-1.562c0-1.559,0.698-2.59,1.579-2.59
				C59.328,31.926,59.699,32.424,59.699,33.598z"/>
		</g>
		<g>
			<path fill="#FFFFFF" d="M5.223,37.916l1.223-7.223l0.18,7.223h1.383l2.582-7.223l-1.145,7.223H11.5l1.584-9.577H9.906
				l-1.98,5.876l-0.103-5.876H4.895l-1.605,9.577H5.223z"/>
		</g>
		<g>
			<path fill="#FFFFFF" d="M36.153,37.931c0.584-3.329,0.692-6.034,2.087-5.541c0.244-1.288,0.479-1.786,0.746-2.332
				c0,0-0.125-0.026-0.388-0.026c-0.897,0-1.563,1.231-1.563,1.231l0.178-1.13h-1.87l-1.251,7.798H36.153z"/>
		</g>
		<g>
			<path fill="#FFFFFF" d="M48.635,29.939c-1.377,0-2.432,0.441-2.432,0.441l-0.29,1.734c0,0,0.869-0.354,2.187-0.354
				c0.748,0,1.295,0.084,1.295,0.693c0,0.37-0.068,0.507-0.068,0.507s-0.589-0.051-0.863-0.051c-1.736,0-3.559,0.742-3.559,2.982
				c0,1.764,1.196,2.168,1.938,2.168c1.417,0,2.026-0.92,2.059-0.924l-0.064,0.77h1.769l0.788-5.541
				C51.393,30.016,49.348,29.939,48.635,29.939z M49.065,34.449c0.038,0.34-0.21,1.926-1.422,1.926c-0.623,0-0.784-0.479-0.784-0.76
				c0-0.551,0.299-1.212,1.769-1.212C48.971,34.403,49.007,34.441,49.065,34.449z"/>
		</g>
		<g>
			<path fill="#FFFFFF" d="M53.006,37.931c0.586-3.329,0.693-6.034,2.089-5.541c0.244-1.288,0.479-1.786,0.746-2.332
				c0,0-0.126-0.026-0.388-0.026c-0.9,0-1.564,1.231-1.564,1.231l0.18-1.13h-1.871l-1.252,7.798H53.006z"/>
		</g>
	</g>
	<g>
		<g>
			<path fill="#DCE5E5" d="M24.03,36.371c0,1.185,0.662,1.713,1.599,1.705c0.732-0.008,1.305-0.211,1.506-0.265l0.251-1.71
				c-0.138,0-0.34,0.059-0.519,0.059c-0.697,0-0.775-0.373-0.73-0.647l0.564-3.489h1.062l0.257-1.893h-1.001l0.205-1.176"/>
		</g>
		<g>
			<path fill="#DCE5E5" d="M28.755,34.551c0,2.844,0.888,3.52,2.483,3.52c1.473,0,2.119-0.331,2.119-0.331l0.355-1.94
				c0,0-1.121,0.496-2.133,0.496c-2.155,0-1.777-1.611-1.777-1.611h4.08c0,0,0.264-1.304,0.264-1.836
				c0-1.325-0.66-2.939-2.863-2.939C29.264,29.908,28.755,32.088,28.755,34.551z M31.292,31.709c1.132,0,1.265,1.276,1.265,1.379
				h-2.571C29.985,32.957,30.195,31.709,31.292,31.709z"/>
		</g>
		<g>
			<path fill="#DCE5E5" d="M44.002,37.812l0.359-2.196c0,0-0.984,0.498-1.66,0.498c-1.424,0-1.995-1.092-1.995-2.261
				c0-2.376,1.225-3.684,2.589-3.684c1.023,0,1.844,0.577,1.844,0.577l0.328-2.131c0,0-1.218-0.494-2.261-0.494
				c-2.318,0-3.589,2.014-3.589,5.799c0,2.508,0.234,4.166,2.629,4.166C42.924,38.086,44.002,37.812,44.002,37.812z"/>
		</g>
		<g>
			<path fill="#DCE5E5" d="M13.37,32.115c0,0,0.872-0.354,2.188-0.354c0.746,0,1.293,0.084,1.293,0.693
				c0,0.37-0.066,0.507-0.066,0.507s-0.589-0.051-0.863-0.051c-1.734,0-3.559,0.742-3.559,2.982c0,1.764,1.195,2.168,1.938,2.168
				c1.416,0,2.025-0.92,2.059-0.924l-0.064,0.77h1.767l0.788-5.541c0-2.35-2.046-2.426-2.757-2.426 M17.509,34.449
				c0.037,0.34-1.198,1.926-2.406,1.926c-0.623,0-0.786-0.479-0.786-0.76c0-0.551,0.299-1.212,1.771-1.212
				C16.43,34.403,17.45,34.441,17.509,34.449z"/>
		</g>
		<g>
			<path fill="#DCE5E5" d="M18.476,37.771c0.048,0.017,0.569,0.248,2.253,0.248c0.452,0,3.036,0.117,3.036-2.557
				c0-2.5-2.392-2.006-2.392-3.011c0-0.497,0.389-0.657,1.103-0.657c0.282,0,1.372,0.091,1.372,0.091l0.254-1.777
				c0,0-0.705-0.157-1.852-0.157c-1.487,0-2.01,0.593-2.01,2.626c0,2.306,1.529,2.072,1.529,3.042c0,0.648-0.702,0.702-1.244,0.702"
				/>
		</g>
		<g>
			<path fill="#DCE5E5" d="M60.198,31.037c0,0-0.756-1.045-1.938-1.045c-1.84,0-2.389,2.222-2.389,4.775
				c0,1.65-0.167,3.263,1.505,3.263c1.203,0,1.868-0.84,1.868-0.84l-0.087,0.717h1.952l1.534-9.567 M60.119,33.598
				c0,1.061-0.945,2.479-2.033,2.479c-0.724,0-1.061-0.607-1.061-1.562c0-1.559,0.698-2.59,1.579-2.59
				C59.328,31.926,60.119,32.424,60.119,33.598z"/>
		</g>
		<g>
			<path fill="#DCE5E5" d="M5.223,37.916l1.223-7.223l0.18,7.223h1.383l2.582-7.223l-1.145,7.223H11.5l1.584-9.577h-2.338
				l-2.82,5.876l-0.103-5.876H6.707l-3.418,9.577H5.223z"/>
		</g>
		<g>
			<path fill="#DCE5E5" d="M34.092,37.931h2.062c0.584-3.329,0.692-6.034,2.087-5.541c0.244-1.288,0.479-1.786,0.746-2.332
				c0,0-0.125-0.026-0.388-0.026c-0.897,0-1.563,1.231-1.563,1.231l0.178-1.13"/>
		</g>
		<g>
			<path fill="#DCE5E5" d="M45.913,32.115c0,0,0.869-0.354,2.187-0.354c0.748,0,1.295,0.084,1.295,0.693
				c0,0.37-0.068,0.507-0.068,0.507s-0.589-0.051-0.863-0.051c-1.736,0-3.559,0.742-3.559,2.982c0,1.764,1.196,2.168,1.938,2.168
				c1.417,0,2.026-0.92,2.059-0.924l-0.064,0.77h1.769l0.788-5.541c0-2.35-2.045-2.426-2.758-2.426 M50.05,34.449
				c0.038,0.34-1.194,1.926-2.406,1.926c-0.623,0-0.784-0.479-0.784-0.76c0-0.551,0.299-1.212,1.769-1.212
				C48.971,34.403,49.991,34.441,50.05,34.449z"/>
		</g>
		<g>
			<path fill="#DCE5E5" d="M50.945,37.931h2.061c0.586-3.329,0.693-6.034,2.089-5.541c0.244-1.288,0.479-1.786,0.746-2.332
				c0,0-0.126-0.026-0.388-0.026c-0.9,0-1.564,1.231-1.564,1.231l0.18-1.13"/>
		</g>
	</g>
</g>
</svg>
